<?xml version="1.0" encoding="UTF-8" standalone="no"?>
<!DOCTYPE svg PUBLIC "-//W3C//DTD SVG 1.0//EN" "http://www.w3.org/TR/2001/PR-SVG-20010719/DTD/svg10.dtd">
<svg width="34cm" height="5cm" viewBox="2 2 662 98" xmlns="http://www.w3.org/2000/svg" xmlns:xlink="http://www.w3.org/1999/xlink">
  <g>
    <polyline style="fill: none; fill-opacity:0; stroke-width: 2; stroke: #0000ff" points="41,99 23.9161,99 23.9161,71.7361 "/>
    <polygon style="fill: #0000ff" points="23.9161,64.2361 28.9161,74.2361 23.9161,71.7361 18.9161,74.2361 "/>
    <polygon style="fill: none; fill-opacity:0; stroke-width: 2; stroke: #0000ff" points="23.9161,64.2361 28.9161,74.2361 23.9161,71.7361 18.9161,74.2361 "/>
  </g>
  <g>
    <ellipse style="fill: #fffb6f" cx="23.8" cy="24" rx="20" ry="20"/>
    <ellipse style="fill: none; fill-opacity:0; stroke-width: 2; stroke: #000000" cx="23.8" cy="24" rx="20" ry="20"/>
    <ellipse style="fill: none; fill-opacity:0; stroke-width: 2; stroke: #000000" cx="23.8" cy="24" rx="20" ry="20"/>
  </g>
  <g>
    <rect style="fill: #ffffff" x="77.975" y="14.15" width="91.9" height="19.75"/>
    <text font-size="16.9333" style="fill: #000000;text-anchor:start;font-family:sans-serif;font-style:normal;font-weight:normal" x="77.975" y="29.9">
      <tspan x="77.975" y="29.9">A category</tspan>
    </text>
  </g>
  <g>
    <rect style="fill: #ffffff" x="76.9" y="71" width="209.15" height="19.75"/>
    <text font-size="16.9333" style="fill: #000000;text-anchor:start;font-family:sans-serif;font-style:normal;font-weight:normal" x="76.9" y="86.75">
      <tspan x="76.9" y="86.75">Categorization of senses</tspan>
    </text>
  </g>
  <g>
    <rect style="fill: #ffffff" x="357.9" y="6" width="38.1" height="34"/>
    <rect style="fill: none; fill-opacity:0; stroke-width: 2; stroke: #0000ff" x="357.9" y="6" width="38.1" height="34"/>
  </g>
  <g>
    <rect style="fill: #ffffff" x="424.9" y="12" width="127.2" height="19.75"/>
    <text font-size="16.9333" style="fill: #000000;text-anchor:start;font-family:sans-serif;font-style:normal;font-weight:normal" x="424.9" y="27.75">
      <tspan x="424.9" y="27.75">A list of senses</tspan>
    </text>
  </g>
  <g>
    <rect style="fill: #ffffff" x="358.9" y="65" width="38.1" height="34"/>
    <rect style="fill: none; fill-opacity:0; stroke-width: 2; stroke: #0000ff" x="358.9" y="65" width="38.1" height="34"/>
  </g>
  <g>
    <rect style="fill: #0000ff" x="358.9" y="65" width="38.1" height="11"/>
    <rect style="fill: none; fill-opacity:0; stroke-width: 2; stroke: #0000ff" x="358.9" y="65" width="38.1" height="11"/>
  </g>
  <g>
    <rect style="fill: #ffffff" x="424.9" y="70" width="239.85" height="19.75"/>
    <text font-size="16.9333" style="fill: #000000;text-anchor:start;font-family:sans-serif;font-style:normal;font-weight:normal" x="424.9" y="85.75">
      <tspan x="424.9" y="85.75">A list of synonymous senses</tspan>
    </text>
  </g>
  <text font-size="11.2889" style="fill: #ffffff;text-anchor:middle;font-family:sans-serif;font-style:normal;font-weight:700" x="377.95" y="76">
    <tspan x="377.95" y="76">syno.</tspan>
  </text>
</svg>
