<?xml version="1.0" encoding="UTF-8" standalone="no"?>
<!DOCTYPE svg PUBLIC "-//W3C//DTD SVG 1.0//EN" "http://www.w3.org/TR/2001/PR-SVG-20010719/DTD/svg10.dtd">
<svg width="36cm" height="19cm" viewBox="5 2 702 368" xmlns="http://www.w3.org/2000/svg" xmlns:xlink="http://www.w3.org/1999/xlink">
  <g>
    <ellipse style="fill: #fffb6f" cx="292" cy="138" rx="20" ry="20"/>
    <ellipse style="fill: none; fill-opacity:0; stroke-width: 2; stroke: #000000" cx="292" cy="138" rx="20" ry="20"/>
    <ellipse style="fill: none; fill-opacity:0; stroke-width: 2; stroke: #000000" cx="292" cy="138" rx="20" ry="20"/>
  </g>
  <g>
    <rect style="fill: #ffffff" x="440" y="277" width="266" height="92"/>
    <rect style="fill: none; fill-opacity:0; stroke-width: 2; stroke: #0000ff" x="440" y="277" width="266" height="92"/>
  </g>
  <text font-size="12.8" style="fill: #000000;text-anchor:start;font-family:sans-serif;font-style:normal;font-weight:normal" x="461" y="344">
    <tspan x="461" y="344">liberty, n.</tspan>
  </text>
  <text font-size="12.8" style="fill: #000000;text-anchor:start;font-family:sans-serif;font-style:normal;font-weight:normal" x="460" y="293">
    <tspan x="460" y="293">freedom, n.</tspan>
  </text>
  <g>
    <polyline style="fill: none; fill-opacity:0; stroke-width: 2; stroke: #0000ff" points="438.994,323 369,323 369,251.736 "/>
    <polygon style="fill: #0000ff" points="369,244.236 374,254.236 369,251.736 364,254.236 "/>
    <polygon style="fill: none; fill-opacity:0; stroke-width: 2; stroke: #0000ff" points="369,244.236 374,254.236 369,251.736 364,254.236 "/>
  </g>
  <g>
    <rect style="fill: #ffffff" x="321" y="276.1" width="0" height="14.9"/>
    <text font-size="12.8" style="fill: #000000;text-anchor:middle;font-family:sans-serif;font-style:normal;font-weight:normal" x="321" y="288">
      <tspan x="321" y="288"></tspan>
    </text>
  </g>
  <g>
    <rect style="fill: #ffffff" x="254.525" y="163.1" width="74.95" height="30.9"/>
    <text font-size="12.8" style="fill: #000000;text-anchor:middle;font-family:sans-serif;font-style:normal;font-weight:700" x="292" y="175">
      <tspan x="292" y="175">Lack of </tspan>
      <tspan x="292" y="191">subjection</tspan>
    </text>
  </g>
  <g>
    <ellipse style="fill: #fffb6f" cx="213.9" cy="83" rx="20" ry="20"/>
    <ellipse style="fill: none; fill-opacity:0; stroke-width: 2; stroke: #000000" cx="213.9" cy="83" rx="20" ry="20"/>
    <ellipse style="fill: none; fill-opacity:0; stroke-width: 2; stroke: #000000" cx="213.9" cy="83" rx="20" ry="20"/>
  </g>
  <g>
    <ellipse style="fill: #fffb6f" cx="138.8" cy="24" rx="20" ry="20"/>
    <ellipse style="fill: none; fill-opacity:0; stroke-width: 2; stroke: #000000" cx="138.8" cy="24" rx="20" ry="20"/>
    <ellipse style="fill: none; fill-opacity:0; stroke-width: 2; stroke: #000000" cx="138.8" cy="24" rx="20" ry="20"/>
  </g>
  <g>
    <rect style="fill: #ffffff" x="179.825" y="105" width="68.15" height="14.9"/>
    <text font-size="12.8" style="fill: #000000;text-anchor:middle;font-family:sans-serif;font-style:normal;font-weight:700" x="213.9" y="116.9">
      <tspan x="213.9" y="116.9">Authority</tspan>
    </text>
  </g>
  <g>
    <rect style="fill: #ffffff" x="111.4" y="47" width="53.15" height="14.9"/>
    <text font-size="12.8" style="fill: #000000;text-anchor:middle;font-family:sans-serif;font-style:normal;font-weight:700" x="137.975" y="58.9">
      <tspan x="137.975" y="58.9">Society</tspan>
    </text>
  </g>
  <line style="fill: none; fill-opacity:0; stroke-width: 2; stroke: #000000" x1="272" y1="125" x2="234" y2="96"/>
  <line style="fill: none; fill-opacity:0; stroke-width: 2; stroke: #000000" x1="196.302" y1="66.4016" x2="158.302" y2="37.4016"/>
  <g>
    <rect style="fill: #0000ff" x="439.948" y="258.864" width="266.054" height="16.2434"/>
    <rect style="fill: none; fill-opacity:0; stroke-width: 2; stroke: #0000ff" x="439.948" y="258.864" width="266.054" height="16.2434"/>
  </g>
  <text font-size="12.9822" style="fill: #ffffff;text-anchor:start;font-family:sans-serif;font-style:normal;font-weight:700" x="452.596" y="271.256">
    <tspan x="452.596" y="271.256">synonyms</tspan>
  </text>
  <g>
    <ellipse style="fill: #fffb6f" cx="370" cy="193" rx="20" ry="20"/>
    <ellipse style="fill: none; fill-opacity:0; stroke-width: 2; stroke: #000000" cx="370" cy="193" rx="20" ry="20"/>
    <ellipse style="fill: none; fill-opacity:0; stroke-width: 2; stroke: #000000" cx="370" cy="193" rx="20" ry="20"/>
  </g>
  <g>
    <rect style="fill: #ffffff" x="312.075" y="218.1" width="115.85" height="14.9"/>
    <text font-size="12.8" style="fill: #000000;text-anchor:middle;font-family:sans-serif;font-style:normal;font-weight:700" x="370" y="230">
      <tspan x="370" y="230">Freedom/liberty</tspan>
    </text>
  </g>
  <line style="fill: none; fill-opacity:0; stroke-width: 2; stroke: #000000" x1="350" y1="180" x2="312" y2="151"/>
  <text font-size="12.8" style="fill: #000000;text-anchor:start;font-family:sans-serif;font-style:normal;font-weight:normal" x="459.9" y="309.9">
    <tspan x="459.9" y="309.9">freeship, n.</tspan>
  </text>
  <text font-size="12.8" style="fill: #000000;text-anchor:start;font-family:sans-serif;font-style:normal;font-weight:normal" x="459.9" y="326.9">
    <tspan x="459.9" y="326.9">franchise, n.</tspan>
  </text>
  <text font-size="12.8" style="fill: #000000;text-anchor:start;font-family:sans-serif;font-style:normal;font-weight:normal" x="461.9" y="358.9">
    <tspan x="461.9" y="358.9">...</tspan>
  </text>
  <text font-size="10.7244" style="fill: #000000;text-anchor:start;font-family:sans-serif;font-style:normal;font-weight:normal" x="547.9" y="292.9">
    <tspan x="547.9" y="292.9">(in sense 3)</tspan>
  </text>
  <line style="fill: none; fill-opacity:0; stroke-width: 2; stroke: #000000" x1="270" y1="149" x2="235" y2="175"/>
  <g>
    <ellipse style="fill: #fffb6f" cx="214.302" cy="191.402" rx="20" ry="20"/>
    <ellipse style="fill: none; fill-opacity:0; stroke-width: 2; stroke: #000000" cx="214.302" cy="191.402" rx="20" ry="20"/>
    <ellipse style="fill: none; fill-opacity:0; stroke-width: 2; stroke: #000000" cx="214.302" cy="191.402" rx="20" ry="20"/>
  </g>
  <g>
    <rect style="fill: #ffffff" x="174.175" y="217.1" width="79.65" height="14.9"/>
    <text font-size="12.8" style="fill: #000000;text-anchor:middle;font-family:sans-serif;font-style:normal;font-weight:700" x="214" y="229">
      <tspan x="214" y="229">Permission</tspan>
    </text>
  </g>
  <line style="fill: none; fill-opacity:0; stroke-width: 2; stroke: #000000" x1="117.725" y1="38.399" x2="82.725" y2="64.399"/>
  <g>
    <ellipse style="fill: #fffb6f" cx="62.0266" cy="80.8006" rx="20" ry="20"/>
    <ellipse style="fill: none; fill-opacity:0; stroke-width: 2; stroke: #000000" cx="62.0266" cy="80.8006" rx="20" ry="20"/>
    <ellipse style="fill: none; fill-opacity:0; stroke-width: 2; stroke: #000000" cx="62.0266" cy="80.8006" rx="20" ry="20"/>
  </g>
  <g>
    <rect style="fill: #ffffff" x="5.65" y="106.499" width="112.15" height="14.9"/>
    <text font-size="12.8" style="fill: #000000;text-anchor:middle;font-family:sans-serif;font-style:normal;font-weight:700" x="61.725" y="118.399">
      <tspan x="61.725" y="118.399">Communication</tspan>
    </text>
  </g>
  <text font-size="10.7244" style="fill: #000000;text-anchor:start;font-family:sans-serif;font-style:normal;font-weight:normal" x="548" y="310">
    <tspan x="548" y="310">(in sense 2)</tspan>
  </text>
  <text font-size="10.7244" style="fill: #000000;text-anchor:start;font-family:sans-serif;font-style:normal;font-weight:normal" x="548" y="327">
    <tspan x="548" y="327">(in sense 1a)</tspan>
  </text>
  <text font-size="10.7244" style="fill: #000000;text-anchor:start;font-family:sans-serif;font-style:normal;font-weight:normal" x="548" y="344">
    <tspan x="548" y="344">(in sense 1b of homonym 1)</tspan>
  </text>
  <text font-size="12.8" style="fill: #000000;text-anchor:start;font-family:sans-serif;font-style:normal;font-weight:normal" x="448.2" y="309.9">
    <tspan x="448.2" y="309.9">†</tspan>
  </text>
  <text font-size="12.8" style="fill: #000000;text-anchor:start;font-family:sans-serif;font-style:normal;font-weight:normal" x="447.9" y="326.8">
    <tspan x="447.9" y="326.8">†</tspan>
  </text>
</svg>
