<?xml version="1.0" encoding="UTF-8" standalone="no"?>
<!DOCTYPE svg PUBLIC "-//W3C//DTD SVG 1.0//EN" "http://www.w3.org/TR/2001/PR-SVG-20010719/DTD/svg10.dtd">
<svg width="32cm" height="16cm" viewBox="31 2 627 310" xmlns="http://www.w3.org/2000/svg" xmlns:xlink="http://www.w3.org/1999/xlink">
  <g>
    <rect style="fill: #ffffff" x="362" y="220" width="295.439" height="92"/>
    <rect style="fill: none; fill-opacity:0; stroke-width: 2; stroke: #0000ff" x="362" y="220" width="295.439" height="92"/>
  </g>
  <text font-size="12.8" style="fill: #000000;text-anchor:start;font-family:sans-serif;font-style:normal;font-weight:normal" x="383" y="287">
    <tspan x="383" y="287">miss</tspan>
  </text>
  <text font-size="12.8" style="fill: #000000;text-anchor:start;font-family:sans-serif;font-style:normal;font-weight:normal" x="382" y="236">
    <tspan x="382" y="236">blander</tspan>
  </text>
  <g>
    <polyline style="fill: none; fill-opacity:0; stroke-width: 2; stroke: #0000ff" points="360.999,266 291,266 291,194.736 "/>
    <polygon style="fill: #0000ff" points="291,187.236 296,197.236 291,194.736 286,197.236 "/>
    <polygon style="fill: none; fill-opacity:0; stroke-width: 2; stroke: #0000ff" points="291,187.236 296,197.236 291,194.736 286,197.236 "/>
  </g>
  <g>
    <rect style="fill: #ffffff" x="243" y="219.1" width="0" height="14.9"/>
    <text font-size="12.8" style="fill: #000000;text-anchor:middle;font-family:sans-serif;font-style:normal;font-weight:normal" x="243" y="231">
      <tspan x="243" y="231"></tspan>
    </text>
  </g>
  <g>
    <ellipse style="fill: #fffb6f" cx="213.9" cy="83" rx="20" ry="20"/>
    <ellipse style="fill: none; fill-opacity:0; stroke-width: 2; stroke: #000000" cx="213.9" cy="83" rx="20" ry="20"/>
    <ellipse style="fill: none; fill-opacity:0; stroke-width: 2; stroke: #000000" cx="213.9" cy="83" rx="20" ry="20"/>
  </g>
  <g>
    <ellipse style="fill: #fffb6f" cx="138.8" cy="24" rx="20" ry="20"/>
    <ellipse style="fill: none; fill-opacity:0; stroke-width: 2; stroke: #000000" cx="138.8" cy="24" rx="20" ry="20"/>
    <ellipse style="fill: none; fill-opacity:0; stroke-width: 2; stroke: #000000" cx="138.8" cy="24" rx="20" ry="20"/>
  </g>
  <g>
    <rect style="fill: #ffffff" x="193.275" y="105" width="41.25" height="14.9"/>
    <text font-size="12.8" style="fill: #000000;text-anchor:middle;font-family:sans-serif;font-style:normal;font-weight:700" x="213.9" y="116.9">
      <tspan x="213.9" y="116.9">Crops</tspan>
    </text>
  </g>
  <g>
    <rect style="fill: #ffffff" x="108.125" y="47" width="59.7" height="14.9"/>
    <text font-size="12.8" style="fill: #000000;text-anchor:middle;font-family:sans-serif;font-style:normal;font-weight:700" x="137.975" y="58.9">
      <tspan x="137.975" y="58.9">Farming</tspan>
    </text>
  </g>
  <line style="fill: none; fill-opacity:0; stroke-width: 2; stroke: #000000" x1="196.302" y1="66.4016" x2="158.302" y2="37.4016"/>
  <g>
    <ellipse style="fill: #fffb6f" cx="292" cy="141" rx="20" ry="20"/>
    <ellipse style="fill: none; fill-opacity:0; stroke-width: 2; stroke: #000000" cx="292" cy="141" rx="20" ry="20"/>
    <ellipse style="fill: none; fill-opacity:0; stroke-width: 2; stroke: #000000" cx="292" cy="141" rx="20" ry="20"/>
  </g>
  <g>
    <rect style="fill: #ffffff" x="264.75" y="166.1" width="52.5" height="14.9"/>
    <text font-size="12.8" style="fill: #000000;text-anchor:middle;font-family:sans-serif;font-style:normal;font-weight:700" x="291" y="178">
      <tspan x="291" y="178">Sowing</tspan>
    </text>
  </g>
  <line style="fill: none; fill-opacity:0; stroke-width: 2; stroke: #000000" x1="272" y1="128" x2="234" y2="99"/>
  <text font-size="12.8" style="fill: #000000;text-anchor:start;font-family:sans-serif;font-style:normal;font-weight:normal" x="381.9" y="252.9">
    <tspan x="381.9" y="252.9">happer</tspan>
  </text>
  <text font-size="12.8" style="fill: #000000;text-anchor:start;font-family:sans-serif;font-style:normal;font-weight:normal" x="381.9" y="269.9">
    <tspan x="381.9" y="269.9">heuch</tspan>
  </text>
  <text font-size="12.8" style="fill: #000000;text-anchor:start;font-family:sans-serif;font-style:normal;font-weight:normal" x="383.9" y="301.9">
    <tspan x="383.9" y="301.9">...</tspan>
  </text>
  <text font-size="10.7244" style="fill: #000000;text-anchor:start;font-family:sans-serif;font-style:normal;font-weight:normal" x="440.721" y="235.9">
    <tspan x="440.721" y="235.9">(in sense 'disperse scantily')</tspan>
  </text>
  <line style="fill: none; fill-opacity:0; stroke-width: 2; stroke: #000000" x1="192" y1="97" x2="157" y2="123"/>
  <g>
    <ellipse style="fill: #fffb6f" cx="136.302" cy="139.402" rx="20" ry="20"/>
    <ellipse style="fill: none; fill-opacity:0; stroke-width: 2; stroke: #000000" cx="136.302" cy="139.402" rx="20" ry="20"/>
    <ellipse style="fill: none; fill-opacity:0; stroke-width: 2; stroke: #000000" cx="136.302" cy="139.402" rx="20" ry="20"/>
  </g>
  <g>
    <rect style="fill: #ffffff" x="99.7" y="165.1" width="72.6" height="14.9"/>
    <text font-size="12.8" style="fill: #000000;text-anchor:middle;font-family:sans-serif;font-style:normal;font-weight:700" x="136" y="177">
      <tspan x="136" y="177">Ploughing</tspan>
    </text>
  </g>
  <line style="fill: none; fill-opacity:0; stroke-width: 2; stroke: #000000" x1="117.725" y1="38.399" x2="82.725" y2="64.399"/>
  <g>
    <ellipse style="fill: #fffb6f" cx="62.0266" cy="80.8006" rx="20" ry="20"/>
    <ellipse style="fill: none; fill-opacity:0; stroke-width: 2; stroke: #000000" cx="62.0266" cy="80.8006" rx="20" ry="20"/>
    <ellipse style="fill: none; fill-opacity:0; stroke-width: 2; stroke: #000000" cx="62.0266" cy="80.8006" rx="20" ry="20"/>
  </g>
  <g>
    <rect style="fill: #ffffff" x="31.9" y="106.499" width="59.65" height="14.9"/>
    <text font-size="12.8" style="fill: #000000;text-anchor:middle;font-family:sans-serif;font-style:normal;font-weight:700" x="61.725" y="118.399">
      <tspan x="61.725" y="118.399">Farmers</tspan>
    </text>
  </g>
  <text font-size="10.7244" style="fill: #000000;text-anchor:start;font-family:sans-serif;font-style:normal;font-weight:normal" x="440.821" y="253">
    <tspan x="440.821" y="253">(in sense 'a basket or container')</tspan>
  </text>
  <text font-size="10.7244" style="fill: #000000;text-anchor:start;font-family:sans-serif;font-style:normal;font-weight:normal" x="440.821" y="270">
    <tspan x="440.821" y="270">(in sense 'earth up plants in drills')</tspan>
  </text>
  <text font-size="10.7244" style="fill: #000000;text-anchor:start;font-family:sans-serif;font-style:normal;font-weight:normal" x="440.821" y="287">
    <tspan x="440.821" y="287">(in sense 'fail to germinate or grow')</tspan>
  </text>
  <text font-size="12.8" style="fill: #000000;text-anchor:start;font-family:sans-serif;font-style:normal;font-weight:normal" x="370.2" y="236.9">
    <tspan x="370.2" y="236.9">†</tspan>
  </text>
</svg>
